<mxfile host="app.diagrams.net" agent="Mozilla/5.0 (Windows NT 10.0; Win64; x64) AppleWebKit/537.36 (KHTML, like Gecko) Chrome/137.0.0.0 Safari/537.36" version="27.2.0">
  <diagram name="Page-1" id="5f0bae14-7c28-e335-631c-24af17079c00">
    <mxGraphModel dx="1500" dy="692" grid="1" gridSize="10" guides="1" tooltips="1" connect="1" arrows="1" fold="1" page="1" pageScale="1" pageWidth="1100" pageHeight="850" background="none" math="0" shadow="0">
      <root>
        <mxCell id="0" />
        <mxCell id="1" parent="0" />
        <mxCell id="39150e848f15840c-1" value="Repository" style="verticalAlign=top;align=left;spacingTop=8;spacingLeft=2;spacingRight=12;shape=cube;size=10;direction=south;fontStyle=4;html=1;rounded=0;shadow=0;comic=0;labelBackgroundColor=none;strokeWidth=1;fontFamily=Verdana;fontSize=12" parent="1" vertex="1">
          <mxGeometry x="120" y="70" width="220" height="120" as="geometry" />
        </mxCell>
        <mxCell id="39150e848f15840c-2" value="Service" style="verticalAlign=top;align=left;spacingTop=8;spacingLeft=2;spacingRight=12;shape=cube;size=10;direction=south;fontStyle=4;html=1;rounded=0;shadow=0;comic=0;labelBackgroundColor=none;strokeWidth=1;fontFamily=Verdana;fontSize=12" parent="1" vertex="1">
          <mxGeometry x="480" y="100" width="390" height="200" as="geometry" />
        </mxCell>
        <mxCell id="39150e848f15840c-3" value="Model" style="verticalAlign=top;align=left;spacingTop=8;spacingLeft=2;spacingRight=12;shape=cube;size=10;direction=south;fontStyle=4;html=1;rounded=0;shadow=0;comic=0;labelBackgroundColor=none;strokeWidth=1;fontFamily=Verdana;fontSize=12" parent="1" vertex="1">
          <mxGeometry x="1265" y="140" width="220" height="100" as="geometry" />
        </mxCell>
        <mxCell id="39150e848f15840c-5" value="UserRepository" style="shape=component;align=left;spacingLeft=36;rounded=0;shadow=0;comic=0;labelBackgroundColor=none;strokeWidth=1;fontFamily=Verdana;fontSize=12;html=1;" parent="1" vertex="1">
          <mxGeometry x="150" y="110" width="140" height="60" as="geometry" />
        </mxCell>
        <mxCell id="39150e848f15840c-6" value="" style="ellipse;whiteSpace=wrap;html=1;rounded=0;shadow=0;comic=0;labelBackgroundColor=none;strokeWidth=1;fontFamily=Verdana;fontSize=12;align=center;" parent="1" vertex="1">
          <mxGeometry x="380" y="130" width="20" height="20" as="geometry" />
        </mxCell>
        <mxCell id="39150e848f15840c-7" value="UserServiceImpl" style="shape=component;align=left;spacingLeft=36;rounded=0;shadow=0;comic=0;labelBackgroundColor=none;strokeWidth=1;fontFamily=Verdana;fontSize=12;html=1;" parent="1" vertex="1">
          <mxGeometry x="490" y="130" width="150" height="60" as="geometry" />
        </mxCell>
        <mxCell id="39150e848f15840c-8" value="«interface»&lt;br&gt;&lt;b&gt;UserService&lt;/b&gt;" style="html=1;rounded=0;shadow=0;comic=0;labelBackgroundColor=none;strokeWidth=1;fontFamily=Verdana;fontSize=12;align=center;" parent="1" vertex="1">
          <mxGeometry x="500" y="230" width="110" height="50" as="geometry" />
        </mxCell>
        <mxCell id="39150e848f15840c-14" style="edgeStyle=elbowEdgeStyle;rounded=0;html=1;labelBackgroundColor=none;startArrow=none;startFill=0;startSize=8;endArrow=none;endFill=0;endSize=16;fontFamily=Verdana;fontSize=12;" parent="1" source="39150e848f15840c-6" target="39150e848f15840c-5" edge="1">
          <mxGeometry relative="1" as="geometry" />
        </mxCell>
        <mxCell id="RhDb0x1sXOlnL1Jw8Qq3-3" value="CustomUserDetailsService" style="shape=component;align=left;spacingLeft=36;rounded=0;shadow=0;comic=0;labelBackgroundColor=none;strokeWidth=1;fontFamily=Verdana;fontSize=12;html=1;" vertex="1" parent="1">
          <mxGeometry x="630" y="225" width="210" height="60" as="geometry" />
        </mxCell>
        <mxCell id="RhDb0x1sXOlnL1Jw8Qq3-5" value="Controller" style="verticalAlign=top;align=left;spacingTop=8;spacingLeft=2;spacingRight=12;shape=cube;size=10;direction=south;fontStyle=4;html=1;rounded=0;shadow=0;comic=0;labelBackgroundColor=none;strokeWidth=1;fontFamily=Verdana;fontSize=12" vertex="1" parent="1">
          <mxGeometry x="80" y="360" width="260" height="150" as="geometry" />
        </mxCell>
        <mxCell id="RhDb0x1sXOlnL1Jw8Qq3-6" value="UserController" style="shape=component;align=left;spacingLeft=36;rounded=0;shadow=0;comic=0;labelBackgroundColor=none;strokeWidth=1;fontFamily=Verdana;fontSize=12;html=1;" vertex="1" parent="1">
          <mxGeometry x="150" y="385" width="140" height="40" as="geometry" />
        </mxCell>
        <mxCell id="RhDb0x1sXOlnL1Jw8Qq3-7" value="GlobalExceptionsHandler" style="shape=component;align=left;spacingLeft=36;rounded=0;shadow=0;comic=0;labelBackgroundColor=none;strokeWidth=1;fontFamily=Verdana;fontSize=12;html=1;" vertex="1" parent="1">
          <mxGeometry x="100" y="460" width="210" height="40" as="geometry" />
        </mxCell>
        <mxCell id="RhDb0x1sXOlnL1Jw8Qq3-14" value="Constants" style="verticalAlign=top;align=left;spacingTop=8;spacingLeft=2;spacingRight=12;shape=cube;size=10;direction=south;fontStyle=4;html=1;rounded=0;shadow=0;comic=0;labelBackgroundColor=none;strokeWidth=1;fontFamily=Verdana;fontSize=12" vertex="1" parent="1">
          <mxGeometry x="200" y="620" width="140" height="90" as="geometry" />
        </mxCell>
        <mxCell id="RhDb0x1sXOlnL1Jw8Qq3-15" value="Constants" style="shape=component;align=left;spacingLeft=36;rounded=0;shadow=0;comic=0;labelBackgroundColor=none;strokeWidth=1;fontFamily=Verdana;fontSize=12;html=1;" vertex="1" parent="1">
          <mxGeometry x="210" y="660" width="110" height="40" as="geometry" />
        </mxCell>
        <mxCell id="RhDb0x1sXOlnL1Jw8Qq3-16" value="Exceptions" style="verticalAlign=top;align=left;spacingTop=8;spacingLeft=2;spacingRight=12;shape=cube;size=10;direction=south;fontStyle=4;html=1;rounded=0;shadow=0;comic=0;labelBackgroundColor=none;strokeWidth=1;fontFamily=Verdana;fontSize=12" vertex="1" parent="1">
          <mxGeometry x="375" y="600" width="260" height="130" as="geometry" />
        </mxCell>
        <mxCell id="RhDb0x1sXOlnL1Jw8Qq3-17" value="ApplicationException" style="shape=component;align=left;spacingLeft=36;rounded=0;shadow=0;comic=0;labelBackgroundColor=none;strokeWidth=1;fontFamily=Verdana;fontSize=12;html=1;" vertex="1" parent="1">
          <mxGeometry x="440" y="620" width="170" height="40" as="geometry" />
        </mxCell>
        <mxCell id="RhDb0x1sXOlnL1Jw8Qq3-18" value="Error" style="shape=component;align=left;spacingLeft=36;rounded=0;shadow=0;comic=0;labelBackgroundColor=none;strokeWidth=1;fontFamily=Verdana;fontSize=12;html=1;" vertex="1" parent="1">
          <mxGeometry x="390" y="670" width="80" height="40" as="geometry" />
        </mxCell>
        <mxCell id="RhDb0x1sXOlnL1Jw8Qq3-19" value="ErrorCodes" style="shape=component;align=left;spacingLeft=36;rounded=0;shadow=0;comic=0;labelBackgroundColor=none;strokeWidth=1;fontFamily=Verdana;fontSize=12;html=1;" vertex="1" parent="1">
          <mxGeometry x="490" y="670" width="110" height="40" as="geometry" />
        </mxCell>
        <mxCell id="RhDb0x1sXOlnL1Jw8Qq3-30" value="h2 database" style="shape=component;align=left;spacingLeft=36;rounded=0;shadow=0;comic=0;labelBackgroundColor=none;strokeWidth=1;fontFamily=Verdana;fontSize=12;html=1;" vertex="1" parent="1">
          <mxGeometry x="50" y="250" width="140" height="60" as="geometry" />
        </mxCell>
        <mxCell id="RhDb0x1sXOlnL1Jw8Qq3-31" value="Use" style="endArrow=open;endSize=12;dashed=1;html=1;rounded=0;exitX=0.5;exitY=1;exitDx=0;exitDy=0;entryX=0.5;entryY=0;entryDx=0;entryDy=0;" edge="1" parent="1" source="39150e848f15840c-5" target="RhDb0x1sXOlnL1Jw8Qq3-30">
          <mxGeometry width="160" relative="1" as="geometry">
            <mxPoint x="440" y="330" as="sourcePoint" />
            <mxPoint x="600" y="330" as="targetPoint" />
          </mxGeometry>
        </mxCell>
        <mxCell id="RhDb0x1sXOlnL1Jw8Qq3-32" value="" style="rounded=0;orthogonalLoop=1;jettySize=auto;html=1;endArrow=halfCircle;endFill=0;endSize=6;strokeWidth=1;sketch=0;fontSize=12;curved=1;entryX=1;entryY=0.5;entryDx=0;entryDy=0;exitX=0;exitY=0.3;exitDx=0;exitDy=0;" edge="1" target="39150e848f15840c-6" parent="1" source="39150e848f15840c-7">
          <mxGeometry relative="1" as="geometry">
            <mxPoint x="525" y="325" as="sourcePoint" />
          </mxGeometry>
        </mxCell>
        <mxCell id="RhDb0x1sXOlnL1Jw8Qq3-33" value="" style="ellipse;whiteSpace=wrap;html=1;align=center;aspect=fixed;fillColor=none;strokeColor=none;resizable=0;perimeter=centerPerimeter;rotatable=0;allowArrows=0;points=[];outlineConnect=1;" vertex="1" parent="1">
          <mxGeometry x="500" y="320" width="10" height="10" as="geometry" />
        </mxCell>
        <mxCell id="RhDb0x1sXOlnL1Jw8Qq3-35" value="" style="endArrow=block;dashed=1;endFill=0;endSize=12;html=1;rounded=0;entryX=0.25;entryY=0;entryDx=0;entryDy=0;exitX=0.25;exitY=1;exitDx=0;exitDy=0;" edge="1" parent="1" source="39150e848f15840c-7" target="39150e848f15840c-8">
          <mxGeometry width="160" relative="1" as="geometry">
            <mxPoint x="440" y="330" as="sourcePoint" />
            <mxPoint x="600" y="330" as="targetPoint" />
          </mxGeometry>
        </mxCell>
        <mxCell id="RhDb0x1sXOlnL1Jw8Qq3-38" style="edgeStyle=elbowEdgeStyle;rounded=0;html=1;labelBackgroundColor=none;startArrow=none;startFill=0;startSize=8;endArrow=none;endFill=0;endSize=16;fontFamily=Verdana;fontSize=12;entryX=0.5;entryY=1;entryDx=0;entryDy=0;exitX=1;exitY=0.5;exitDx=0;exitDy=0;" edge="1" parent="1" source="RhDb0x1sXOlnL1Jw8Qq3-37" target="39150e848f15840c-8">
          <mxGeometry relative="1" as="geometry">
            <mxPoint x="550" y="340" as="targetPoint" />
            <mxPoint x="350" y="330" as="sourcePoint" />
            <Array as="points">
              <mxPoint x="555" y="320" />
            </Array>
          </mxGeometry>
        </mxCell>
        <mxCell id="RhDb0x1sXOlnL1Jw8Qq3-37" value="" style="ellipse;whiteSpace=wrap;html=1;rounded=0;shadow=0;comic=0;labelBackgroundColor=none;strokeWidth=1;fontFamily=Verdana;fontSize=12;align=center;" vertex="1" parent="1">
          <mxGeometry x="460" y="320" width="20" height="20" as="geometry" />
        </mxCell>
        <mxCell id="RhDb0x1sXOlnL1Jw8Qq3-42" value="" style="shape=requiredInterface;html=1;verticalLabelPosition=bottom;sketch=0;rotation=-180;" vertex="1" parent="1">
          <mxGeometry x="452" y="320" width="10" height="20" as="geometry" />
        </mxCell>
        <mxCell id="RhDb0x1sXOlnL1Jw8Qq3-43" style="edgeStyle=elbowEdgeStyle;rounded=0;html=1;labelBackgroundColor=none;startArrow=none;startFill=0;startSize=8;endArrow=none;endFill=0;endSize=16;fontFamily=Verdana;fontSize=12;exitX=1;exitY=0.5;exitDx=0;exitDy=0;exitPerimeter=0;entryX=0.5;entryY=0;entryDx=0;entryDy=0;" edge="1" parent="1" source="RhDb0x1sXOlnL1Jw8Qq3-42" target="RhDb0x1sXOlnL1Jw8Qq3-6">
          <mxGeometry relative="1" as="geometry">
            <mxPoint x="370" y="425" as="sourcePoint" />
            <mxPoint x="280" y="425" as="targetPoint" />
            <Array as="points">
              <mxPoint x="210" y="360" />
            </Array>
          </mxGeometry>
        </mxCell>
        <mxCell id="RhDb0x1sXOlnL1Jw8Qq3-44" value="Use" style="endArrow=open;endSize=12;dashed=1;html=1;rounded=0;entryX=0.5;entryY=1;entryDx=0;entryDy=0;" edge="1" parent="1" source="RhDb0x1sXOlnL1Jw8Qq3-7" target="RhDb0x1sXOlnL1Jw8Qq3-6">
          <mxGeometry width="160" relative="1" as="geometry">
            <mxPoint x="440" y="330" as="sourcePoint" />
            <mxPoint x="600" y="330" as="targetPoint" />
          </mxGeometry>
        </mxCell>
        <mxCell id="RhDb0x1sXOlnL1Jw8Qq3-47" value="Mapper" style="verticalAlign=top;align=left;spacingTop=8;spacingLeft=2;spacingRight=12;shape=cube;size=10;direction=south;fontStyle=4;html=1;rounded=0;shadow=0;comic=0;labelBackgroundColor=none;strokeWidth=1;fontFamily=Verdana;fontSize=12" vertex="1" parent="1">
          <mxGeometry x="1000" y="120" width="200" height="130" as="geometry" />
        </mxCell>
        <mxCell id="RhDb0x1sXOlnL1Jw8Qq3-48" value="PhoneMapper" style="shape=component;align=left;spacingLeft=36;rounded=0;shadow=0;comic=0;labelBackgroundColor=none;strokeWidth=1;fontFamily=Verdana;fontSize=12;html=1;" vertex="1" parent="1">
          <mxGeometry x="1040" y="150" width="135" height="40" as="geometry" />
        </mxCell>
        <mxCell id="RhDb0x1sXOlnL1Jw8Qq3-49" value="UserMapper" style="shape=component;align=left;spacingLeft=36;rounded=0;shadow=0;comic=0;labelBackgroundColor=none;strokeWidth=1;fontFamily=Verdana;fontSize=12;html=1;" vertex="1" parent="1">
          <mxGeometry x="1047.5" y="200" width="120" height="40" as="geometry" />
        </mxCell>
        <mxCell id="RhDb0x1sXOlnL1Jw8Qq3-50" value="" style="ellipse;whiteSpace=wrap;html=1;rounded=0;shadow=0;comic=0;labelBackgroundColor=none;strokeWidth=1;fontFamily=Verdana;fontSize=12;align=center;" vertex="1" parent="1">
          <mxGeometry x="910" y="150" width="20" height="20" as="geometry" />
        </mxCell>
        <mxCell id="RhDb0x1sXOlnL1Jw8Qq3-51" style="edgeStyle=elbowEdgeStyle;rounded=0;html=1;labelBackgroundColor=none;startArrow=none;startFill=0;startSize=8;endArrow=none;endFill=0;endSize=16;fontFamily=Verdana;fontSize=12;entryX=1;entryY=0.5;entryDx=0;entryDy=0;" edge="1" parent="1" source="RhDb0x1sXOlnL1Jw8Qq3-50" target="39150e848f15840c-7">
          <mxGeometry relative="1" as="geometry">
            <mxPoint x="380" y="140" as="targetPoint" />
          </mxGeometry>
        </mxCell>
        <mxCell id="RhDb0x1sXOlnL1Jw8Qq3-52" value="" style="rounded=0;orthogonalLoop=1;jettySize=auto;html=1;endArrow=halfCircle;endFill=0;endSize=6;strokeWidth=1;sketch=0;fontSize=12;curved=1;entryX=1;entryY=0.5;entryDx=0;entryDy=0;exitX=0;exitY=0.3;exitDx=0;exitDy=0;" edge="1" parent="1" target="RhDb0x1sXOlnL1Jw8Qq3-50" source="RhDb0x1sXOlnL1Jw8Qq3-48">
          <mxGeometry relative="1" as="geometry">
            <mxPoint x="580" y="148" as="sourcePoint" />
          </mxGeometry>
        </mxCell>
        <mxCell id="RhDb0x1sXOlnL1Jw8Qq3-55" value="" style="ellipse;whiteSpace=wrap;html=1;rounded=0;shadow=0;comic=0;labelBackgroundColor=none;strokeWidth=1;fontFamily=Verdana;fontSize=12;align=center;" vertex="1" parent="1">
          <mxGeometry x="917.5" y="200" width="20" height="20" as="geometry" />
        </mxCell>
        <mxCell id="RhDb0x1sXOlnL1Jw8Qq3-56" style="edgeStyle=elbowEdgeStyle;rounded=0;html=1;labelBackgroundColor=none;startArrow=none;startFill=0;startSize=8;endArrow=none;endFill=0;endSize=16;fontFamily=Verdana;fontSize=12;entryX=1;entryY=0.75;entryDx=0;entryDy=0;" edge="1" parent="1" source="RhDb0x1sXOlnL1Jw8Qq3-55" target="39150e848f15840c-7">
          <mxGeometry relative="1" as="geometry">
            <mxPoint x="647.5" y="210" as="targetPoint" />
          </mxGeometry>
        </mxCell>
        <mxCell id="RhDb0x1sXOlnL1Jw8Qq3-57" value="" style="rounded=0;orthogonalLoop=1;jettySize=auto;html=1;endArrow=halfCircle;endFill=0;endSize=6;strokeWidth=1;sketch=0;fontSize=12;curved=1;entryX=1;entryY=0.5;entryDx=0;entryDy=0;exitX=0;exitY=0.3;exitDx=0;exitDy=0;" edge="1" parent="1" target="RhDb0x1sXOlnL1Jw8Qq3-55" source="RhDb0x1sXOlnL1Jw8Qq3-49">
          <mxGeometry relative="1" as="geometry">
            <mxPoint x="1047.5" y="212" as="sourcePoint" />
          </mxGeometry>
        </mxCell>
        <mxCell id="RhDb0x1sXOlnL1Jw8Qq3-58" value="DTO" style="verticalAlign=top;align=left;spacingTop=8;spacingLeft=2;spacingRight=12;shape=cube;size=10;direction=south;fontStyle=4;html=1;rounded=0;shadow=0;comic=0;labelBackgroundColor=none;strokeWidth=1;fontFamily=Verdana;fontSize=12" vertex="1" parent="1">
          <mxGeometry x="980" y="325" width="285" height="200" as="geometry" />
        </mxCell>
        <mxCell id="RhDb0x1sXOlnL1Jw8Qq3-59" value="UserPhones" style="shape=component;align=left;spacingLeft=36;rounded=0;shadow=0;comic=0;labelBackgroundColor=none;strokeWidth=1;fontFamily=Verdana;fontSize=12;html=1;" vertex="1" parent="1">
          <mxGeometry x="985" y="360" width="110" height="40" as="geometry" />
        </mxCell>
        <mxCell id="RhDb0x1sXOlnL1Jw8Qq3-60" value="UserSignUpResponse" style="shape=component;align=left;spacingLeft=36;rounded=0;shadow=0;comic=0;labelBackgroundColor=none;strokeWidth=1;fontFamily=Verdana;fontSize=12;html=1;" vertex="1" parent="1">
          <mxGeometry x="985" y="465" width="180" height="40" as="geometry" />
        </mxCell>
        <mxCell id="RhDb0x1sXOlnL1Jw8Qq3-61" value="UserRequest" style="shape=component;align=left;spacingLeft=36;rounded=0;shadow=0;comic=0;labelBackgroundColor=none;strokeWidth=1;fontFamily=Verdana;fontSize=12;html=1;" vertex="1" parent="1">
          <mxGeometry x="1115" y="360" width="130" height="40" as="geometry" />
        </mxCell>
        <mxCell id="RhDb0x1sXOlnL1Jw8Qq3-62" value="UserSignInResponse" style="shape=component;align=left;spacingLeft=36;rounded=0;shadow=0;comic=0;labelBackgroundColor=none;strokeWidth=1;fontFamily=Verdana;fontSize=12;html=1;" vertex="1" parent="1">
          <mxGeometry x="985" y="410" width="180" height="40" as="geometry" />
        </mxCell>
        <mxCell id="RhDb0x1sXOlnL1Jw8Qq3-63" value="Security" style="verticalAlign=top;align=left;spacingTop=8;spacingLeft=2;spacingRight=12;shape=cube;size=10;direction=south;fontStyle=4;html=1;rounded=0;shadow=0;comic=0;labelBackgroundColor=none;strokeWidth=1;fontFamily=Verdana;fontSize=12" vertex="1" parent="1">
          <mxGeometry x="462" y="410" width="410" height="170" as="geometry" />
        </mxCell>
        <mxCell id="RhDb0x1sXOlnL1Jw8Qq3-64" value="AuthTokenFilter" style="shape=component;align=left;spacingLeft=36;rounded=0;shadow=0;comic=0;labelBackgroundColor=none;strokeWidth=1;fontFamily=Verdana;fontSize=12;html=1;" vertex="1" parent="1">
          <mxGeometry x="510" y="440" width="145" height="40" as="geometry" />
        </mxCell>
        <mxCell id="RhDb0x1sXOlnL1Jw8Qq3-65" value="WebSecurityConfig" style="shape=component;align=left;spacingLeft=36;rounded=0;shadow=0;comic=0;labelBackgroundColor=none;strokeWidth=1;fontFamily=Verdana;fontSize=12;html=1;" vertex="1" parent="1">
          <mxGeometry x="667" y="495" width="180" height="40" as="geometry" />
        </mxCell>
        <mxCell id="RhDb0x1sXOlnL1Jw8Qq3-66" value="JwtConfig" style="shape=component;align=left;spacingLeft=36;rounded=0;shadow=0;comic=0;labelBackgroundColor=none;strokeWidth=1;fontFamily=Verdana;fontSize=12;html=1;" vertex="1" parent="1">
          <mxGeometry x="720" y="440" width="130" height="40" as="geometry" />
        </mxCell>
        <mxCell id="RhDb0x1sXOlnL1Jw8Qq3-67" value="SecurityConfig" style="shape=component;align=left;spacingLeft=36;rounded=0;shadow=0;comic=0;labelBackgroundColor=none;strokeWidth=1;fontFamily=Verdana;fontSize=12;html=1;" vertex="1" parent="1">
          <mxGeometry x="470" y="525" width="180" height="40" as="geometry" />
        </mxCell>
        <mxCell id="RhDb0x1sXOlnL1Jw8Qq3-68" value="Use" style="endArrow=open;endSize=12;dashed=1;html=1;rounded=0;entryX=0;entryY=0.3;entryDx=0;entryDy=0;exitX=1;exitY=0.5;exitDx=0;exitDy=0;" edge="1" parent="1" source="RhDb0x1sXOlnL1Jw8Qq3-64" target="RhDb0x1sXOlnL1Jw8Qq3-66">
          <mxGeometry width="160" relative="1" as="geometry">
            <mxPoint x="390" y="445" as="sourcePoint" />
            <mxPoint x="400" y="410" as="targetPoint" />
          </mxGeometry>
        </mxCell>
        <mxCell id="RhDb0x1sXOlnL1Jw8Qq3-69" style="edgeStyle=elbowEdgeStyle;rounded=0;html=1;labelBackgroundColor=none;startArrow=none;startFill=0;startSize=8;endArrow=none;endFill=0;endSize=16;fontFamily=Verdana;fontSize=12;entryX=0.5;entryY=1;entryDx=0;entryDy=0;exitX=1;exitY=0.5;exitDx=0;exitDy=0;" edge="1" parent="1" source="RhDb0x1sXOlnL1Jw8Qq3-70" target="RhDb0x1sXOlnL1Jw8Qq3-3">
          <mxGeometry relative="1" as="geometry">
            <mxPoint x="735" y="320" as="targetPoint" />
            <mxPoint x="530" y="370" as="sourcePoint" />
            <Array as="points">
              <mxPoint x="735" y="360" />
            </Array>
          </mxGeometry>
        </mxCell>
        <mxCell id="RhDb0x1sXOlnL1Jw8Qq3-70" value="" style="ellipse;whiteSpace=wrap;html=1;rounded=0;shadow=0;comic=0;labelBackgroundColor=none;strokeWidth=1;fontFamily=Verdana;fontSize=12;align=center;" vertex="1" parent="1">
          <mxGeometry x="640" y="360" width="20" height="20" as="geometry" />
        </mxCell>
        <mxCell id="RhDb0x1sXOlnL1Jw8Qq3-71" style="edgeStyle=elbowEdgeStyle;rounded=0;html=1;labelBackgroundColor=none;startArrow=none;startFill=0;startSize=8;endArrow=none;endFill=0;endSize=16;fontFamily=Verdana;fontSize=12;exitX=1;exitY=0.5;exitDx=0;exitDy=0;exitPerimeter=0;entryX=0.5;entryY=0;entryDx=0;entryDy=0;" edge="1" parent="1" source="RhDb0x1sXOlnL1Jw8Qq3-72">
          <mxGeometry relative="1" as="geometry">
            <mxPoint x="637" y="370" as="sourcePoint" />
            <mxPoint x="587.5" y="440" as="targetPoint" />
            <Array as="points">
              <mxPoint x="585" y="420" />
            </Array>
          </mxGeometry>
        </mxCell>
        <mxCell id="RhDb0x1sXOlnL1Jw8Qq3-76" value="" style="edgeStyle=elbowEdgeStyle;rounded=0;html=1;labelBackgroundColor=none;startArrow=none;startFill=0;startSize=8;endArrow=none;endFill=0;endSize=16;fontFamily=Verdana;fontSize=12;exitX=1;exitY=0.5;exitDx=0;exitDy=0;exitPerimeter=0;entryX=0.5;entryY=0;entryDx=0;entryDy=0;" edge="1" parent="1" target="RhDb0x1sXOlnL1Jw8Qq3-72">
          <mxGeometry relative="1" as="geometry">
            <mxPoint x="637" y="370" as="sourcePoint" />
            <mxPoint x="587.5" y="440" as="targetPoint" />
            <Array as="points" />
          </mxGeometry>
        </mxCell>
        <mxCell id="RhDb0x1sXOlnL1Jw8Qq3-72" value="" style="shape=requiredInterface;html=1;verticalLabelPosition=bottom;sketch=0;rotation=-180;" vertex="1" parent="1">
          <mxGeometry x="630" y="360" width="10" height="20" as="geometry" />
        </mxCell>
        <mxCell id="RhDb0x1sXOlnL1Jw8Qq3-77" style="edgeStyle=elbowEdgeStyle;rounded=0;html=1;labelBackgroundColor=none;startArrow=none;startFill=0;startSize=8;endArrow=none;endFill=0;endSize=16;fontFamily=Verdana;fontSize=12;exitX=1;exitY=0.5;exitDx=0;exitDy=0;" edge="1" parent="1" source="RhDb0x1sXOlnL1Jw8Qq3-78" target="RhDb0x1sXOlnL1Jw8Qq3-3">
          <mxGeometry relative="1" as="geometry">
            <mxPoint x="825" y="320" as="targetPoint" />
            <mxPoint x="620" y="405" as="sourcePoint" />
            <Array as="points">
              <mxPoint x="910" y="420" />
            </Array>
          </mxGeometry>
        </mxCell>
        <mxCell id="RhDb0x1sXOlnL1Jw8Qq3-78" value="" style="ellipse;whiteSpace=wrap;html=1;rounded=0;shadow=0;comic=0;labelBackgroundColor=none;strokeWidth=1;fontFamily=Verdana;fontSize=12;align=center;" vertex="1" parent="1">
          <mxGeometry x="900" y="500" width="20" height="20" as="geometry" />
        </mxCell>
        <mxCell id="RhDb0x1sXOlnL1Jw8Qq3-79" value="" style="shape=requiredInterface;html=1;verticalLabelPosition=bottom;sketch=0;rotation=-180;" vertex="1" parent="1">
          <mxGeometry x="890" y="500" width="10" height="20" as="geometry" />
        </mxCell>
        <mxCell id="RhDb0x1sXOlnL1Jw8Qq3-81" style="edgeStyle=elbowEdgeStyle;rounded=0;html=1;labelBackgroundColor=none;startArrow=none;startFill=0;startSize=8;endArrow=none;endFill=0;endSize=16;fontFamily=Verdana;fontSize=12;exitX=1;exitY=0.5;exitDx=0;exitDy=0;exitPerimeter=0;entryX=1;entryY=0.5;entryDx=0;entryDy=0;" edge="1" parent="1" source="RhDb0x1sXOlnL1Jw8Qq3-79" target="RhDb0x1sXOlnL1Jw8Qq3-65">
          <mxGeometry relative="1" as="geometry">
            <mxPoint x="980" y="570" as="sourcePoint" />
            <mxPoint x="890" y="570" as="targetPoint" />
          </mxGeometry>
        </mxCell>
        <mxCell id="RhDb0x1sXOlnL1Jw8Qq3-82" value="Use" style="endArrow=open;endSize=12;dashed=1;html=1;rounded=0;entryX=1;entryY=0.75;entryDx=0;entryDy=0;exitX=0.75;exitY=1;exitDx=0;exitDy=0;" edge="1" parent="1" source="RhDb0x1sXOlnL1Jw8Qq3-65" target="RhDb0x1sXOlnL1Jw8Qq3-67">
          <mxGeometry width="160" relative="1" as="geometry">
            <mxPoint x="690" y="458" as="sourcePoint" />
            <mxPoint x="755" y="450" as="targetPoint" />
            <Array as="points">
              <mxPoint x="800" y="550" />
            </Array>
          </mxGeometry>
        </mxCell>
        <mxCell id="RhDb0x1sXOlnL1Jw8Qq3-83" value="Use" style="endArrow=open;endSize=12;dashed=1;html=1;rounded=0;entryX=0;entryY=0;entryDx=0;entryDy=137.5;exitX=0;exitY=0;exitDx=130;exitDy=105;entryPerimeter=0;exitPerimeter=0;" edge="1" parent="1" source="RhDb0x1sXOlnL1Jw8Qq3-47" target="RhDb0x1sXOlnL1Jw8Qq3-58">
          <mxGeometry width="160" relative="1" as="geometry">
            <mxPoint x="690" y="458" as="sourcePoint" />
            <mxPoint x="755" y="450" as="targetPoint" />
          </mxGeometry>
        </mxCell>
        <mxCell id="RhDb0x1sXOlnL1Jw8Qq3-84" value="User" style="shape=component;align=left;spacingLeft=36;rounded=0;shadow=0;comic=0;labelBackgroundColor=none;strokeWidth=1;fontFamily=Verdana;fontSize=12;html=1;" vertex="1" parent="1">
          <mxGeometry x="1290" y="185" width="80" height="40" as="geometry" />
        </mxCell>
        <mxCell id="RhDb0x1sXOlnL1Jw8Qq3-85" value="Phone" style="shape=component;align=left;spacingLeft=36;rounded=0;shadow=0;comic=0;labelBackgroundColor=none;strokeWidth=1;fontFamily=Verdana;fontSize=12;html=1;" vertex="1" parent="1">
          <mxGeometry x="1380" y="185" width="80" height="40" as="geometry" />
        </mxCell>
        <mxCell id="RhDb0x1sXOlnL1Jw8Qq3-86" value="Use" style="endArrow=open;endSize=12;dashed=1;html=1;rounded=0;entryX=0;entryY=0;entryDx=55;entryDy=220;exitX=0;exitY=0;exitDx=60;exitDy=0;entryPerimeter=0;exitPerimeter=0;" edge="1" parent="1" source="RhDb0x1sXOlnL1Jw8Qq3-47" target="39150e848f15840c-3">
          <mxGeometry width="160" relative="1" as="geometry">
            <mxPoint x="1110" y="300" as="sourcePoint" />
            <mxPoint x="1143" y="375" as="targetPoint" />
          </mxGeometry>
        </mxCell>
      </root>
    </mxGraphModel>
  </diagram>
</mxfile>
